<?xml version="1.0" standalone="no"?>
<!DOCTYPE svg PUBLIC "-//W3C//DTD SVG 20010904//EN"
 "http://www.w3.org/TR/2001/REC-SVG-20010904/DTD/svg10.dtd">
<svg version="1.0" xmlns="http://www.w3.org/2000/svg"
 width="512.000000pt" height="512.000000pt" viewBox="0 0 512.000000 512.000000"
 preserveAspectRatio="xMidYMid meet">
<metadata>
Created by potrace 1.11, written by Peter Selinger 2001-2013
</metadata>
<g transform="translate(0.000000,512.000000) scale(0.100000,-0.100000)"
fill="#000000" stroke="none">
<path d="M1186 3620 c-427 -68 -772 -378 -883 -795 -23 -89 -26 -118 -26 -265
0 -146 3 -176 26 -262 82 -309 282 -556 562 -694 61 -30 155 -66 210 -81 89
-23 118 -26 265 -26 147 0 176 3 265 26 134 36 300 119 400 201 44 35 186 170
315 300 l234 236 266 -263 c146 -145 295 -285 331 -310 92 -65 240 -133 356
-164 87 -23 117 -26 263 -26 147 0 176 3 265 26 380 102 670 392 772 775 23
86 26 116 26 262 0 146 -3 176 -26 262 -82 309 -280 553 -562 693 -63 32 -153
67 -210 82 -89 23 -118 26 -265 26 -147 0 -176 -3 -265 -26 -132 -35 -299
-119 -400 -201 -44 -35 -186 -170 -315 -300 l-234 -235 -271 267 c-284 282
-343 330 -500 403 -130 61 -255 90 -410 94 -71 2 -157 0 -189 -5z m319 -437
c33 -8 96 -33 140 -56 72 -37 105 -66 345 -304 l265 -263 -265 -263 c-240
-238 -273 -267 -345 -304 -107 -55 -189 -75 -305 -75 -177 0 -330 63 -455 187
-124 125 -187 277 -187 455 0 178 63 330 187 455 165 164 390 226 620 168z
m2430 0 c163 -40 324 -168 402 -319 55 -105 75 -187 75 -304 0 -178 -63 -330
-187 -455 -125 -124 -278 -187 -455 -187 -116 0 -198 20 -305 75 -72 37 -105
66 -345 304 l-265 263 265 263 c240 239 272 267 345 304 157 81 302 98 470 56z"/>
</g>
</svg>
